<mxfile host="app.diagrams.net" modified="2023-11-04T15:46:20.678Z" agent="Mozilla/5.0 (Macintosh; Intel Mac OS X 10_15_7) AppleWebKit/537.36 (KHTML, like Gecko) Chrome/118.0.0.0 Safari/537.36" etag="O6LWc5Fv6LmGR93ptfPO" version="22.0.8" type="device">
  <diagram name="第 1 页" id="gP93COqQAEpai8W4gH09">
    <mxGraphModel dx="1026" dy="650" grid="1" gridSize="10" guides="1" tooltips="1" connect="1" arrows="1" fold="1" page="1" pageScale="1" pageWidth="827" pageHeight="1169" math="0" shadow="0">
      <root>
        <mxCell id="0" />
        <mxCell id="1" parent="0" />
        <mxCell id="TWiqgpYvmtbDSeUG6tB8-1" value="&lt;hr&gt;&lt;hr&gt;" style="rounded=1;whiteSpace=wrap;html=1;strokeColor=#000000;" vertex="1" parent="1">
          <mxGeometry x="50" y="300" width="580" height="110" as="geometry" />
        </mxCell>
        <mxCell id="TWiqgpYvmtbDSeUG6tB8-2" value="BFF" style="text;strokeColor=none;align=center;fillColor=none;html=1;verticalAlign=middle;whiteSpace=wrap;rounded=0;" vertex="1" parent="1">
          <mxGeometry x="60" y="300" width="40" height="30" as="geometry" />
        </mxCell>
        <mxCell id="TWiqgpYvmtbDSeUG6tB8-4" value="NestJS" style="whiteSpace=wrap;html=1;" vertex="1" parent="1">
          <mxGeometry x="100" y="330" width="80" height="50" as="geometry" />
        </mxCell>
        <mxCell id="TWiqgpYvmtbDSeUG6tB8-5" value="Apollo server" style="whiteSpace=wrap;html=1;" vertex="1" parent="1">
          <mxGeometry x="200" y="330" width="90" height="50" as="geometry" />
        </mxCell>
        <mxCell id="TWiqgpYvmtbDSeUG6tB8-47" value="" style="edgeStyle=orthogonalEdgeStyle;rounded=0;orthogonalLoop=1;jettySize=auto;html=1;entryX=0.833;entryY=1.014;entryDx=0;entryDy=0;entryPerimeter=0;" edge="1" parent="1" source="TWiqgpYvmtbDSeUG6tB8-8" target="TWiqgpYvmtbDSeUG6tB8-11">
          <mxGeometry relative="1" as="geometry">
            <Array as="points">
              <mxPoint x="380" y="290" />
              <mxPoint x="250" y="290" />
            </Array>
          </mxGeometry>
        </mxCell>
        <mxCell id="TWiqgpYvmtbDSeUG6tB8-8" value="GraphQL code generator" style="whiteSpace=wrap;html=1;" vertex="1" parent="1">
          <mxGeometry x="310" y="330" width="160" height="50" as="geometry" />
        </mxCell>
        <mxCell id="TWiqgpYvmtbDSeUG6tB8-9" value="SWR" style="whiteSpace=wrap;html=1;" vertex="1" parent="1">
          <mxGeometry x="495" y="330" width="80" height="50" as="geometry" />
        </mxCell>
        <mxCell id="TWiqgpYvmtbDSeUG6tB8-11" value="" style="rounded=1;whiteSpace=wrap;html=1;" vertex="1" parent="1">
          <mxGeometry x="50" y="10" width="240" height="220" as="geometry" />
        </mxCell>
        <mxCell id="TWiqgpYvmtbDSeUG6tB8-13" value="客户端" style="text;strokeColor=none;align=center;fillColor=none;html=1;verticalAlign=middle;whiteSpace=wrap;rounded=0;" vertex="1" parent="1">
          <mxGeometry x="60" y="10" width="60" height="30" as="geometry" />
        </mxCell>
        <mxCell id="TWiqgpYvmtbDSeUG6tB8-14" value="monitor-portal" style="whiteSpace=wrap;html=1;" vertex="1" parent="1">
          <mxGeometry x="65" y="100" width="95" height="40" as="geometry" />
        </mxCell>
        <mxCell id="TWiqgpYvmtbDSeUG6tB8-15" value="bestchain-portal" style="whiteSpace=wrap;html=1;" vertex="1" parent="1">
          <mxGeometry x="170" y="50" width="100" height="40" as="geometry" />
        </mxCell>
        <mxCell id="TWiqgpYvmtbDSeUG6tB8-17" value="msa-portal" style="whiteSpace=wrap;html=1;" vertex="1" parent="1">
          <mxGeometry x="170" y="100" width="100" height="40" as="geometry" />
        </mxCell>
        <mxCell id="TWiqgpYvmtbDSeUG6tB8-18" value="......" style="text;strokeColor=none;align=center;fillColor=none;html=1;verticalAlign=middle;whiteSpace=wrap;rounded=0;" vertex="1" parent="1">
          <mxGeometry x="140" y="140" width="50" height="20" as="geometry" />
        </mxCell>
        <mxCell id="TWiqgpYvmtbDSeUG6tB8-19" value="" style="whiteSpace=wrap;html=1;" vertex="1" parent="1">
          <mxGeometry x="65" y="165" width="215" height="45" as="geometry" />
        </mxCell>
        <mxCell id="TWiqgpYvmtbDSeUG6tB8-20" value="oidc-portal" style="text;strokeColor=none;align=center;fillColor=none;html=1;verticalAlign=middle;whiteSpace=wrap;rounded=0;" vertex="1" parent="1">
          <mxGeometry x="70" y="170" width="60" height="20" as="geometry" />
        </mxCell>
        <mxCell id="TWiqgpYvmtbDSeUG6tB8-21" value="统一登录页面" style="whiteSpace=wrap;html=1;" vertex="1" parent="1">
          <mxGeometry x="140" y="180" width="90" height="20" as="geometry" />
        </mxCell>
        <mxCell id="TWiqgpYvmtbDSeUG6tB8-22" value="......" style="text;strokeColor=none;align=center;fillColor=none;html=1;verticalAlign=middle;whiteSpace=wrap;rounded=0;" vertex="1" parent="1">
          <mxGeometry x="224" y="183" width="50" height="20" as="geometry" />
        </mxCell>
        <mxCell id="TWiqgpYvmtbDSeUG6tB8-23" value="" style="endArrow=classic;html=1;rounded=0;exitX=0.25;exitY=1;exitDx=0;exitDy=0;" edge="1" parent="1" source="TWiqgpYvmtbDSeUG6tB8-21">
          <mxGeometry width="50" height="50" relative="1" as="geometry">
            <mxPoint x="167.06" y="200" as="sourcePoint" />
            <mxPoint x="163" y="296" as="targetPoint" />
            <Array as="points" />
          </mxGeometry>
        </mxCell>
        <mxCell id="TWiqgpYvmtbDSeUG6tB8-24" value="user/passwd" style="edgeLabel;html=1;align=center;verticalAlign=middle;resizable=0;points=[];" vertex="1" connectable="0" parent="TWiqgpYvmtbDSeUG6tB8-23">
          <mxGeometry x="0.24" y="-1" relative="1" as="geometry">
            <mxPoint as="offset" />
          </mxGeometry>
        </mxCell>
        <mxCell id="TWiqgpYvmtbDSeUG6tB8-65" value="" style="edgeStyle=orthogonalEdgeStyle;rounded=0;orthogonalLoop=1;jettySize=auto;html=1;entryX=0.75;entryY=0;entryDx=0;entryDy=0;exitX=0.475;exitY=0.995;exitDx=0;exitDy=0;exitPerimeter=0;" edge="1" parent="1" source="TWiqgpYvmtbDSeUG6tB8-32" target="TWiqgpYvmtbDSeUG6tB8-1">
          <mxGeometry relative="1" as="geometry">
            <Array as="points">
              <mxPoint x="485" y="229" />
            </Array>
          </mxGeometry>
        </mxCell>
        <mxCell id="TWiqgpYvmtbDSeUG6tB8-66" value="api" style="edgeLabel;html=1;align=center;verticalAlign=middle;resizable=0;points=[];" vertex="1" connectable="0" parent="TWiqgpYvmtbDSeUG6tB8-65">
          <mxGeometry x="0.0045" y="2" relative="1" as="geometry">
            <mxPoint as="offset" />
          </mxGeometry>
        </mxCell>
        <mxCell id="TWiqgpYvmtbDSeUG6tB8-32" value="" style="rounded=1;whiteSpace=wrap;html=1;" vertex="1" parent="1">
          <mxGeometry x="340" y="10" width="290" height="220" as="geometry" />
        </mxCell>
        <mxCell id="TWiqgpYvmtbDSeUG6tB8-33" value="服务" style="text;strokeColor=none;align=center;fillColor=none;html=1;verticalAlign=middle;whiteSpace=wrap;rounded=0;" vertex="1" parent="1">
          <mxGeometry x="370" y="10" width="60" height="30" as="geometry" />
        </mxCell>
        <mxCell id="TWiqgpYvmtbDSeUG6tB8-34" value="dex" style="rounded=0;whiteSpace=wrap;html=1;" vertex="1" parent="1">
          <mxGeometry x="380" y="167.5" width="100" height="40" as="geometry" />
        </mxCell>
        <mxCell id="TWiqgpYvmtbDSeUG6tB8-40" value="" style="endArrow=classic;html=1;rounded=0;exitX=0.653;exitY=0.009;exitDx=0;exitDy=0;exitPerimeter=0;" edge="1" parent="1" source="TWiqgpYvmtbDSeUG6tB8-1" target="TWiqgpYvmtbDSeUG6tB8-34">
          <mxGeometry width="50" height="50" relative="1" as="geometry">
            <mxPoint x="420" y="300" as="sourcePoint" />
            <mxPoint x="419.5" y="220" as="targetPoint" />
            <Array as="points" />
          </mxGeometry>
        </mxCell>
        <mxCell id="TWiqgpYvmtbDSeUG6tB8-42" value="登录认证 获取token" style="edgeLabel;html=1;align=center;verticalAlign=middle;resizable=0;points=[];" vertex="1" connectable="0" parent="TWiqgpYvmtbDSeUG6tB8-40">
          <mxGeometry x="0.0889" y="4" relative="1" as="geometry">
            <mxPoint x="4" as="offset" />
          </mxGeometry>
        </mxCell>
        <mxCell id="TWiqgpYvmtbDSeUG6tB8-43" value="" style="endArrow=classic;startArrow=classic;html=1;rounded=0;entryX=0.713;entryY=1.018;entryDx=0;entryDy=0;entryPerimeter=0;exitX=0.298;exitY=0.009;exitDx=0;exitDy=0;exitPerimeter=0;" edge="1" parent="1" source="TWiqgpYvmtbDSeUG6tB8-1" target="TWiqgpYvmtbDSeUG6tB8-11">
          <mxGeometry width="50" height="50" relative="1" as="geometry">
            <mxPoint x="221" y="290" as="sourcePoint" />
            <mxPoint x="250" y="240" as="targetPoint" />
            <Array as="points" />
          </mxGeometry>
        </mxCell>
        <mxCell id="TWiqgpYvmtbDSeUG6tB8-46" value="jwt" style="edgeLabel;html=1;align=center;verticalAlign=middle;resizable=0;points=[];" vertex="1" connectable="0" parent="TWiqgpYvmtbDSeUG6tB8-43">
          <mxGeometry x="0.0446" y="1" relative="1" as="geometry">
            <mxPoint as="offset" />
          </mxGeometry>
        </mxCell>
        <mxCell id="TWiqgpYvmtbDSeUG6tB8-48" value="OpenAPI sdk" style="text;html=1;align=center;verticalAlign=middle;resizable=0;points=[];autosize=1;strokeColor=none;fillColor=none;" vertex="1" parent="1">
          <mxGeometry x="250" y="258" width="90" height="30" as="geometry" />
        </mxCell>
        <mxCell id="TWiqgpYvmtbDSeUG6tB8-49" value="IAM-provider" style="rounded=0;whiteSpace=wrap;html=1;" vertex="1" parent="1">
          <mxGeometry x="380" y="110" width="100" height="40" as="geometry" />
        </mxCell>
        <mxCell id="TWiqgpYvmtbDSeUG6tB8-50" value="ChartMuseum" style="rounded=0;whiteSpace=wrap;html=1;" vertex="1" parent="1">
          <mxGeometry x="490" y="50" width="100" height="40" as="geometry" />
        </mxCell>
        <mxCell id="TWiqgpYvmtbDSeUG6tB8-51" value="MinIO" style="rounded=0;whiteSpace=wrap;html=1;" vertex="1" parent="1">
          <mxGeometry x="380" y="50" width="100" height="40" as="geometry" />
        </mxCell>
        <mxCell id="TWiqgpYvmtbDSeUG6tB8-53" value="......" style="text;strokeColor=none;align=center;fillColor=none;html=1;verticalAlign=middle;whiteSpace=wrap;rounded=0;" vertex="1" parent="1">
          <mxGeometry x="510" y="130" width="50" height="20" as="geometry" />
        </mxCell>
        <mxCell id="TWiqgpYvmtbDSeUG6tB8-56" value="" style="rounded=1;whiteSpace=wrap;html=1;" vertex="1" parent="1">
          <mxGeometry x="50" y="460" width="580" height="60" as="geometry" />
        </mxCell>
        <mxCell id="TWiqgpYvmtbDSeUG6tB8-57" value="K8s API" style="text;strokeColor=none;align=center;fillColor=none;html=1;verticalAlign=middle;whiteSpace=wrap;rounded=0;" vertex="1" parent="1">
          <mxGeometry x="60" y="460" width="60" height="30" as="geometry" />
        </mxCell>
        <mxCell id="TWiqgpYvmtbDSeUG6tB8-58" value="oidc-proxy（可选）" style="whiteSpace=wrap;html=1;" vertex="1" parent="1">
          <mxGeometry x="190" y="470" width="120" height="40" as="geometry" />
        </mxCell>
        <mxCell id="TWiqgpYvmtbDSeUG6tB8-59" value="" style="edgeStyle=none;orthogonalLoop=1;jettySize=auto;html=1;rounded=0;entryX=0.143;entryY=-0.017;entryDx=0;entryDy=0;entryPerimeter=0;" edge="1" parent="1">
          <mxGeometry width="100" relative="1" as="geometry">
            <mxPoint x="339" y="410" as="sourcePoint" />
            <mxPoint x="339.0899999999999" y="458.98" as="targetPoint" />
            <Array as="points">
              <mxPoint x="339" y="430" />
            </Array>
          </mxGeometry>
        </mxCell>
        <mxCell id="TWiqgpYvmtbDSeUG6tB8-60" value="id-token" style="edgeLabel;html=1;align=center;verticalAlign=middle;resizable=0;points=[];" vertex="1" connectable="0" parent="TWiqgpYvmtbDSeUG6tB8-59">
          <mxGeometry x="-0.1716" y="1" relative="1" as="geometry">
            <mxPoint x="-1" y="2" as="offset" />
          </mxGeometry>
        </mxCell>
        <mxCell id="TWiqgpYvmtbDSeUG6tB8-61" value="kube-apiserver" style="whiteSpace=wrap;html=1;" vertex="1" parent="1">
          <mxGeometry x="390" y="470" width="120" height="40" as="geometry" />
        </mxCell>
        <mxCell id="TWiqgpYvmtbDSeUG6tB8-67" value="tdsf-portal" style="whiteSpace=wrap;html=1;" vertex="1" parent="1">
          <mxGeometry x="65" y="50" width="95" height="40" as="geometry" />
        </mxCell>
      </root>
    </mxGraphModel>
  </diagram>
</mxfile>
